<svg xmlns:xlink="http://www.w3.org/1999/xlink" xmlns="http://www.w3.org/2000/svg" class=" storke-current sc-bdvvtL daxvMa icon icon-loading-inner" width="112.9"  height="112.9" ><defs><symbol id="si_loading-inner" viewBox="8.9 8.95 112.9 112.9"><path d="M65.389,121.83L65.389,121.83C34.227,121.845,8.953,96.595,8.938,65.433C8.924,34.27,34.174,8.997,65.336,8.982c31.162-0.015,56.436,25.235,56.451,56.397c0.011,22.826-13.733,43.41-34.819,52.151c-6.84,2.84-14.174,4.301-21.58,4.3H65.389z M81.433,74.509c-8.898,0.008-16.105,7.227-16.097,16.125c0.008,8.898,7.227,16.105,16.125,16.097c7.716-0.007,14.345-5.484,15.805-13.061h0.038c1.681-8.736-4.038-17.18-12.774-18.861c-0.013-0.003-0.026-0.005-0.04-0.008C83.483,74.607,82.459,74.51,81.433,74.509z M40.992,66.723C32.073,66.721,24.84,73.95,24.839,82.87s7.227,16.151,16.147,16.153s16.152-7.227,16.153-16.147c0.002-7.74-5.488-14.393-13.088-15.86C43.043,66.821,42.019,66.723,40.992,66.723z M65.014,58.653c-3.954,0.006-7.155,3.216-7.15,7.17c0.005,3.425,2.435,6.367,5.797,7.019h0.038c3.885,0.727,7.623-1.833,8.35-5.718c0.727-3.885-1.833-7.623-5.718-8.35C65.896,58.693,65.456,58.652,65.014,58.653L65.014,58.653z M89.433,31.509c-8.898,0.008-16.105,7.227-16.097,16.125c0.008,8.898,7.227,16.105,16.125,16.097c7.716-0.007,14.345-5.484,15.805-13.061h0.038c1.681-8.736-4.038-17.18-12.774-18.861c-0.013-0.003-0.026-0.005-0.04-0.008C91.483,31.607,90.459,31.51,89.433,31.509zM49.224,24.082c-8.896,0.008-16.101,7.226-16.093,16.123c0.007,7.719,5.489,14.349,13.07,15.804c1.008,0.194,2.032,0.292,3.059,0.293c8.897-0.003,16.108-7.218,16.104-16.116s-7.218-16.108-16.116-16.104c0,0,0,0,0,0L49.224,24.082z"></path></symbol></defs><use xlink:href="#si_loading-inner"></use></svg>